#N canvas 1 -938 1577 828 10;
#X obj 38 88 receive fromGUI;
#X obj 38 127 route list;
#X obj 470 96 receive fromNetwork;
#X obj 481 718 send toGUI;
#X obj 36 752 send toNetwork;
#X obj 470 134 route list;
#X obj 469 316 list prepend /drumLabel;
#X msg 33 217 list /play \$1;
#X msg 46 246 list /timeOffset \$1;
#X msg 66 277 list /save \$1;
#X msg 774 322 list /thumb \$1 \$2;
#X obj 790 294 pack f f;
#X obj 790 259 t b f;
#X msg 890 324 list /hit \$1;
#X obj 548 355 itosym;
#X obj 548 382 list prepend /modNum;
#X obj 196 216 bng 15 250 50 0 empty empty empty 17 7 0 10 -262144
-1 -1;
#X obj 208 330 timer;
#X floatatom 215 287 5 0 0 0 - - -, f 5;
#X obj 215 265 ali.counter 1 2;
#X obj 215 308 sel 1 2;
#X floatatom 208 352 5 0 0 0 - - -, f 5;
#X obj 208 373 t b f;
#X obj 219 424 /;
#X msg 194 395 60000;
#X floatatom 219 446 5 0 0 0 - - -, f 5;
#X obj 217 215 sel 1;
#X obj 219 467 int;
#X msg 219 528 list /tempo \$1;
#X obj 805 617 itosym;
#X obj 805 642 list prepend /bpmLabel;
#X obj 646 591 / 200;
#X floatatom 644 617 5 0 0 0 - - -, f 5;
#X obj 644 642 list prepend /bpmDial set;
#X obj 470 165 route /drum /modNum /prob /timeOffset /vol /hit /play
, f 97;
#X obj 981 303 tgl 15 0 empty empty empty 17 7 0 10 -262144 -1 -1 0
1;
#X obj 981 323 list prepend /play set;
#X obj 1305 249 symbol;
#X symbolatom 1305 297 0 0 0 0 - - -;
#X obj 636 347 list prepend /prob set;
#X obj 636 318 / 12;
#X obj 710 195 / 8;
#X obj 790 192 / 90;
#X obj 710 240 line 0 20;
#X msg 710 219 \$1 100;
#X obj 790 237 line 0 20;
#X msg 790 216 \$1 100;
#X obj 195 687 itosym;
#X obj 195 727 list prepend /offsetStat;
#X obj 195 663 * 100;
#X msg 195 706 \$1 %, f 8;
#X obj 1328 449 sel 1;
#X obj 1277 530 send toSystem;
#X obj 1277 558 r fromSystem;
#X obj 1277 580 list trim;
#X obj 1277 689 send toGUI;
#X obj 1277 606 route /textDialog /confirmationDialog;
#X obj 1277 635 route /textDialogTag;
#X obj 1277 667 list prepend /panel7TextDialogLabel result:;
#X msg 1328 473 list /textDialog /textDialogTag I like fun input:;
#X text 1273 424 Preset Naming:;
#X obj 195 756 send toGUI;
#X obj 1241 155 receive fromNetwork;
#X obj 1241 193 route list;
#X obj 1241 218 route /drum;
#X text 1235 125 Drum router (note using);
#X obj 33 169 route /play /timeOffset /save /tapTempo /bpmDial, f
49;
#X obj 326 265 * 200;
#X obj 998 709 send toGUI;
#X obj 996 671 list prepend /loadPreset;
#X obj 996 581 receive fromNetwork;
#X obj 996 619 route list;
#X obj 996 641 route /loadList;
#X obj 1305 273 makefilename /%s/load;
#X msg 1339 201 kick;
#X obj 1307 371 print;
#X obj 66 299 print;
#X obj 1305 322 list append 1;
#X connect 0 0 1 0;
#X connect 1 0 66 0;
#X connect 2 0 5 0;
#X connect 5 0 34 0;
#X connect 6 0 3 0;
#X connect 7 0 4 0;
#X connect 8 0 4 0;
#X connect 9 0 4 0;
#X connect 9 0 76 0;
#X connect 10 0 3 0;
#X connect 11 0 10 0;
#X connect 12 0 11 0;
#X connect 12 1 11 1;
#X connect 13 0 3 0;
#X connect 14 0 15 0;
#X connect 15 0 3 0;
#X connect 16 0 19 0;
#X connect 17 0 21 0;
#X connect 18 0 20 0;
#X connect 19 0 18 0;
#X connect 20 0 17 0;
#X connect 20 1 17 1;
#X connect 21 0 22 0;
#X connect 22 0 24 0;
#X connect 22 1 23 1;
#X connect 23 0 25 0;
#X connect 24 0 23 0;
#X connect 25 0 27 0;
#X connect 26 0 19 0;
#X connect 27 0 28 0;
#X connect 27 0 29 0;
#X connect 27 0 31 0;
#X connect 28 0 4 0;
#X connect 29 0 30 0;
#X connect 30 0 3 0;
#X connect 31 0 32 0;
#X connect 32 0 33 0;
#X connect 33 0 3 0;
#X connect 34 0 6 0;
#X connect 34 1 14 0;
#X connect 34 2 40 0;
#X connect 34 3 41 0;
#X connect 34 4 42 0;
#X connect 34 5 13 0;
#X connect 34 6 35 0;
#X connect 35 0 36 0;
#X connect 36 0 3 0;
#X connect 37 0 73 0;
#X connect 38 0 77 0;
#X connect 39 0 3 0;
#X connect 40 0 39 0;
#X connect 41 0 44 0;
#X connect 42 0 46 0;
#X connect 43 0 11 0;
#X connect 44 0 43 0;
#X connect 45 0 12 0;
#X connect 46 0 45 0;
#X connect 47 0 50 0;
#X connect 48 0 61 0;
#X connect 49 0 47 0;
#X connect 50 0 48 0;
#X connect 51 0 59 0;
#X connect 53 0 54 0;
#X connect 54 0 56 0;
#X connect 56 0 57 0;
#X connect 57 0 58 0;
#X connect 58 0 55 0;
#X connect 59 0 52 0;
#X connect 62 0 63 0;
#X connect 63 0 64 0;
#X connect 64 0 37 0;
#X connect 66 0 7 0;
#X connect 66 1 8 0;
#X connect 66 1 49 0;
#X connect 66 2 9 0;
#X connect 66 3 26 0;
#X connect 66 4 67 0;
#X connect 67 0 25 0;
#X connect 69 0 68 0;
#X connect 70 0 71 0;
#X connect 71 0 72 0;
#X connect 72 0 69 0;
#X connect 73 0 38 0;
#X connect 74 0 37 0;
#X connect 77 0 75 0;
